<?xml version="1.0" standalone="no"?>
<!DOCTYPE svg PUBLIC "-//W3C//DTD SVG 20010904//EN"
 "http://www.w3.org/TR/2001/REC-SVG-20010904/DTD/svg10.dtd">
<svg version="1.0" xmlns="http://www.w3.org/2000/svg"
 width="104.000000pt" height="97.000000pt" viewBox="0 0 104.000000 97.000000"
 preserveAspectRatio="xMidYMid meet">

<g transform="translate(0.000000,97.000000) scale(0.100000,-0.100000)"
fill="#000000" stroke="none">
<path d="M471 954 c-79 -21 -149 -62 -212 -124 -67 -66 -107 -147 -123 -246
-10 -68 -13 -73 -55 -105 -24 -19 -50 -44 -58 -56 -14 -21 -13 -22 22 -32 20
-5 58 -24 86 -41 l49 -32 -22 -31 c-12 -16 -39 -37 -60 -46 -21 -9 -38 -19
-38 -22 0 -8 64 -39 82 -39 7 0 -2 -13 -21 -29 l-34 -28 46 -11 c25 -7 57 -12
71 -12 14 0 40 -9 58 -20 44 -26 112 -26 162 1 31 17 40 18 47 7 5 -7 9 -16 9
-20 0 -9 51 -44 76 -52 19 -6 21 -3 16 19 -5 29 6 32 50 9 45 -23 142 -15 193
16 l38 24 -32 11 -33 11 55 37 c137 91 217 277 189 443 -30 181 -170 333 -343
373 -61 15 -154 12 -218 -5z m292 -51 c246 -116 323 -423 162 -642 -41 -55
-151 -141 -181 -141 -22 0 -16 -14 13 -32 l28 -17 -30 -11 c-38 -15 -101 -5
-144 21 -36 22 -61 19 -61 -6 0 -43 -51 10 -59 62 l-6 37 -35 -31 c-48 -41
-73 -53 -114 -53 -43 0 -53 13 -21 28 24 11 74 92 57 92 -5 0 -19 -12 -33 -26
-31 -34 -78 -54 -129 -54 -42 0 -50 9 -26 29 8 7 19 25 25 42 9 27 9 28 -9 19
-10 -5 -30 -10 -45 -10 -24 0 -22 3 32 60 31 33 65 60 75 60 11 0 17 4 13 9
-3 5 -20 8 -38 5 -20 -3 -44 2 -64 13 -17 10 -50 28 -73 41 -40 22 -41 24 -25
42 9 10 32 26 50 34 31 15 32 18 37 85 12 164 128 307 296 362 91 30 217 22
305 -18z"/>
<path d="M516 909 c-169 -28 -313 -182 -324 -347 l-4 -64 46 5 c40 4 52 12 86
50 55 63 128 107 174 107 31 0 48 9 90 46 67 61 122 97 135 89 20 -12 39 -59
46 -115 6 -45 5 -53 -6 -42 -20 19 -29 14 -29 -15 0 -25 -1 -25 -18 -10 -26
24 -30 22 -34 -15 -3 -30 -6 -33 -38 -33 -34 0 -35 -1 -35 -40 0 -36 3 -40 27
-43 18 -2 31 4 42 19 l15 23 9 -25 9 -24 22 35 c18 30 21 32 21 13 0 -33 15
-28 31 9 l13 32 18 -40 c10 -21 18 -53 18 -70 0 -27 -3 -31 -22 -27 -56 10
-138 -82 -141 -157 -1 -35 3 -46 26 -66 32 -28 83 -32 126 -10 41 22 100 92
130 155 23 49 26 68 26 161 0 97 -2 110 -32 172 -59 126 -163 206 -293 227
-36 6 -69 10 -75 10 -5 -1 -32 -5 -59 -10z"/>
<path d="M414 599 c-8 -8 -14 -18 -14 -21 0 -10 84 14 99 27 11 11 6 13 -28
12 -24 -1 -48 -9 -57 -18z"/>
<path d="M613 375 c-53 -16 -121 -55 -152 -88 -22 -25 -23 -26 -2 -20 27 7 27
-1 -4 -41 -35 -46 -32 -60 8 -36 42 26 82 27 72 3 -22 -58 -12 -101 15 -68 17
20 26 19 64 -10 18 -14 43 -25 56 -25 l24 0 -27 28 c-60 63 -73 149 -32 221
14 24 24 45 23 46 -2 2 -22 -3 -45 -10z"/>
</g>
</svg>
